# xmcd
#
# Track frame offsets:
#	150
#	16800
#	30975
#	66460
#	99000
#	134850
#
# Disc length: 2182 seconds
#
# Revision: 2
# Processed by: cddbd v1.5.1PL0 Copyright (c) Steve Scherf et al.
# Submitted via: EasyCDDAExtractor 6.5.0.1
#
DISCID=47088406
DTITLE=French Affair - My Heart Goes Boom - La Di Da Da
DYEAR=2000
DGENRE=Dance
TTITLE0=My Heart Goes Boom - La Di Da Da(Radio Edit)
TTITLE1=My Heart Goes Boom - La Di Da Da(Plasmic Honey's Radio Edit)
TTITLE2=My Heart Goes Boom - La Di Da Da(Plasmic Honey's Big Boom Mix)
TTITLE3=My Heart Goes Boom - La Di Da Da(Plasmic Honey's Big Boom Dub)
TTITLE4=My Heart Goes Boom - La Di Da Da(Bastone And Berstein Club Mix)
TTITLE5=My Heart Goes Boom - La Di Da Da(Sharp Festival Remix)
EXTD=
EXTT0=
EXTT1=Remixed by Plasmic Honey.
EXTT2=Remixed by Plasmic Honey.
EXTT3=Remixed by Plasmic Honey.
EXTT4=Remix productions by Freddy Bastone and Jeff Bernstein for Kung Pow Prod
EXTT4=uctions at Sound Choice Studios.
EXTT5=Remix and additional production by the Sharp Boys for Sharp Production /
EXTT5=Diesel Productions.
PLAYORDER=
